<svg width="28" height="23" viewBox="0 0 28 23" fill="none" xmlns="http://www.w3.org/2000/svg">
<path d="M2.33264 10.0827L17.9927 3.63047C19.5385 2.95841 24.7809 0.807631 24.7809 0.807631C24.7809 0.807631 27.2005 -0.133315 26.9989 2.15185C26.9316 3.0928 26.394 6.38616 25.8563 9.94831L24.176 20.5003C24.176 20.5003 24.0415 22.0461 22.899 22.315C21.7565 22.5838 19.8746 21.3741 19.5385 21.1052C19.2697 20.9035 14.4977 17.8791 12.7503 16.4004C12.2798 15.9972 11.7421 15.1907 12.8174 14.2498C15.237 12.0318 18.1271 9.27615 19.8746 7.52875C20.681 6.72219 21.4876 4.8403 18.1271 7.12547L8.65038 13.5105C8.65038 13.5105 7.57504 14.1825 5.55875 13.5776C3.54247 12.9728 1.19008 12.1662 1.19008 12.1662C1.19008 12.1662 -0.422968 11.158 2.33264 10.0827Z" fill="white"/>
</svg>
